<?xml version="1.0" standalone="no"?>
<!DOCTYPE svg PUBLIC "-//W3C//DTD SVG 20010904//EN"
 "http://www.w3.org/TR/2001/REC-SVG-20010904/DTD/svg10.dtd">
<svg version="1.0" xmlns="http://www.w3.org/2000/svg"
 width="234.000000pt" height="234.000000pt" viewBox="0 0 234.000000 234.000000"
 preserveAspectRatio="xMidYMid meet">
<metadata>
Created by potrace 1.10, written by Peter Selinger 2001-2011
</metadata>
<g transform="translate(0.000000,234.000000) scale(0.100000,-0.100000)"
fill="#16c4df" stroke="none">
<path d="M994 2220 c-11 -4 -47 -11 -80 -15 -32 -4 -63 -11 -69 -15 -5 -4 -28
-11 -49 -15 -22 -3 -49 -13 -60 -21 -11 -8 -28 -14 -38 -14 -10 0 -18 -4 -18
-9 0 -5 -14 -12 -30 -16 -17 -4 -30 -10 -30 -15 0 -5 -10 -12 -21 -15 -24 -8
-97 -56 -143 -95 -59 -50 -186 -183 -186 -195 0 -5 -39 -64 -50 -75 -13 -13
-80 -161 -95 -210 -9 -30 -21 -64 -26 -75 -42 -96 -42 -487 1 -566 5 -9 12
-33 15 -53 4 -20 11 -39 16 -42 5 -3 9 -13 9 -22 0 -9 14 -43 30 -75 75 -149
166 -264 275 -352 52 -41 64 -51 89 -73 8 -6 20 -12 25 -12 5 0 16 -6 23 -13
15 -14 139 -77 151 -77 5 0 23 -6 40 -14 34 -15 100 -32 182 -46 65 -11 288
-11 345 0 81 16 145 32 155 40 6 4 25 11 43 15 47 10 212 101 272 150 60 49
171 165 210 219 60 82 123 208 149 296 12 41 27 93 34 115 16 53 16 413 0 446
-6 13 -14 32 -17 42 -5 14 -13 16 -48 11 -24 -4 -47 -10 -53 -14 -5 -5 -28
-11 -50 -15 -22 -3 -65 -13 -95 -21 -30 -9 -68 -20 -85 -24 -16 -5 -51 -12
-78 -16 -26 -3 -49 -10 -52 -14 -3 -5 -29 -11 -58 -15 -28 -4 -56 -10 -62 -14
-5 -3 -35 -11 -65 -18 -30 -7 -84 -19 -120 -28 -36 -9 -86 -20 -112 -25 -26
-5 -56 -14 -68 -20 -34 -18 -41 -1 -38 85 l3 79 50 14 c28 7 73 18 100 24 28
5 55 13 60 18 6 4 26 11 45 14 19 4 44 11 55 16 11 4 39 13 63 19 23 6 61 16
85 22 23 6 51 14 62 19 11 5 40 13 65 20 25 6 63 16 85 21 22 6 49 15 60 19
11 5 39 12 62 15 24 4 45 11 49 16 3 5 15 9 27 9 12 0 28 4 36 9 12 8 12 12
-2 26 -10 9 -17 21 -17 26 0 5 -14 31 -31 59 -29 47 -59 64 -73 41 -4 -5 -24
-12 -47 -16 -22 -4 -53 -13 -67 -21 -15 -8 -37 -14 -49 -14 -12 0 -24 -4 -27
-9 -3 -5 -22 -12 -42 -16 -20 -3 -44 -10 -53 -15 -9 -5 -50 -19 -91 -30 -41
-12 -84 -25 -95 -30 -11 -5 -54 -18 -95 -30 -41 -12 -84 -25 -95 -30 -11 -5
-36 -12 -55 -16 -19 -3 -40 -11 -47 -16 -6 -5 -14 -5 -17 0 -9 16 -10 152 -1
161 6 4 28 13 50 19 22 5 65 18 95 27 30 8 73 20 95 26 22 5 49 13 60 18 19 8
53 17 150 42 22 6 47 14 56 19 9 5 34 12 55 16 22 3 44 10 49 14 6 5 31 11 58
15 26 4 47 11 47 16 0 5 -12 19 -26 32 -15 12 -34 29 -43 38 -36 34 -100 79
-114 79 -8 0 -28 -7 -43 -15 -16 -8 -41 -15 -56 -15 -15 0 -29 -4 -33 -9 -3
-5 -20 -12 -38 -16 -40 -9 -127 -35 -149 -46 -9 -5 -35 -12 -58 -15 -22 -4
-43 -10 -45 -15 -3 -4 -26 -11 -50 -15 -25 -3 -48 -10 -51 -15 -3 -5 -14 -9
-25 -9 -17 0 -19 8 -19 85 l0 84 44 20 c24 10 58 22 76 26 17 4 34 13 37 21 3
8 15 14 28 14 13 0 25 7 29 15 3 8 17 15 31 15 14 0 25 4 25 8 0 16 -25 32
-51 32 -15 0 -43 7 -62 15 -40 17 -255 20 -293 5z"/>
</g>
</svg>
