<!DOCTYPE svg PUBLIC "-//W3C//DTD SVG 20010904//EN" "http://www.w3.org/TR/2001/REC-SVG-20010904/DTD/svg10.dtd">
<svg version="1.0" xmlns="http://www.w3.org/2000/svg" width="512px" height="512px" viewBox="0 0 5120 5120" preserveAspectRatio="xMidYMid meet">
<g id="layer1" fill="#8ba6b3" stroke="none">
 <path d="M2876 3582 c-3 -5 8 -21 23 -36 16 -15 31 -23 35 -18 3 5 -8 21 -23 36 -16 15 -31 23 -35 18z"/>
 <path d="M2945 3521 c-3 -6 3 -15 14 -21 12 -6 22 -6 26 -1 3 6 -3 15 -14 21 -12 6 -22 6 -26 1z"/>
 <path d="M3005 3500 c-3 -5 0 -13 8 -16 23 -8 102 0 102 11 0 14 -102 19 -110 5z"/>
 <path d="M3006 1631 c-4 -6 -12 -8 -19 -5 -15 5 -54 -21 -41 -28 5 -3 20 -1 34 4 14 5 58 11 97 11 40 1 74 7 75 12 4 13 -138 19 -146 6z"/>
 </g>
<g id="layer2" fill="#a1a1a1" stroke="none">
 <path d="M2614 3298 c-142 -155 -283 -308 -311 -340 l-53 -58 4 -327 4 -326 50 -51 c27 -28 156 -168 287 -311 131 -143 253 -275 271 -294 l33 -35 41 29 c34 24 54 29 128 34 48 3 86 10 85 14 -1 5 -194 218 -430 474 -235 256 -429 468 -430 472 -2 3 184 208 411 456 228 247 412 453 410 457 -3 4 -24 8 -47 8 -60 0 -105 15 -148 50 -21 16 -39 30 -41 30 -2 0 -121 -127 -264 -282z"/>
 </g>
<g id="layer3" fill="#235871" stroke="none">
 <path d="M3848 4915 c-9 -9 1 -1418 10 -1427 5 -5 62 -7 128 -6 l119 3 0 715 0 715 -126 3 c-69 1 -128 0 -131 -3z"/>
 <path d="M1015 3278 c-3 -7 -4 -330 -3 -718 l3 -705 125 0 125 0 0 715 0 715 -123 3 c-92 2 -124 -1 -127 -10z"/>
 <path d="M3848 1635 c-9 -9 1 -1418 10 -1427 5 -5 62 -7 128 -6 l119 3 0 715 0 715 -126 3 c-69 1 -128 0 -131 -3z"/>
 </g>
<g id="layer4" fill="#44afe3" stroke="none">
 <path d="M2945 4897 c-21 -12 -53 -42 -70 -65 l-30 -44 -3 -556 c-2 -307 0 -572 3 -590 7 -38 73 -115 119 -140 27 -14 83 -16 466 -17 l435 0 -1 701 c-1 386 -4 709 -7 718 -6 14 -50 16 -439 16 -430 0 -433 0 -473 -23z"/>
 <path d="M4095 4908 c-3 -7 -4 -330 -3 -718 l3 -705 419 -3 c283 -1 431 1 459 9 26 7 58 27 84 54 l43 42 0 608 c0 680 4 638 -74 693 l-39 27 -444 3 c-353 2 -444 0 -448 -10z"/>
 <path d="M105 3267 c-22 -12 -50 -38 -62 -56 l-23 -34 0 -609 0 -609 44 -43 c64 -65 83 -67 556 -64 l405 3 0 715 0 715 -440 2 -440 3 -40 -23z"/>
 <path d="M1255 3278 c-3 -7 -4 -330 -3 -718 l3 -705 440 0 c395 0 443 2 471 17 45 24 92 82 103 125 6 23 9 257 8 598 -3 631 2 592 -80 659 l-39 31 -449 3 c-358 2 -450 0 -454 -10z"/>
 <path d="M3063 1631 c-80 -5 -97 -10 -135 -36 -25 -18 -52 -49 -66 -75 l-23 -45 3 -572 3 -571 30 -44 c17 -23 49 -53 70 -65 40 -23 40 -23 480 -20 l440 2 -1 701 c0 385 -3 708 -7 717 -6 15 -38 17 -354 15 -191 -1 -389 -4 -440 -7z"/>
 <path d="M4095 1628 c-3 -7 -4 -330 -3 -718 l3 -705 446 0 446 0 39 27 c78 55 74 13 74 693 l0 608 -43 42 c-25 25 -58 47 -82 54 -60 16 -874 15 -880 -1z"/>
 </g>

</svg>